<svg width="310" height="116" viewBox="0 0 310 116" fill="none" xmlns="http://www.w3.org/2000/svg">
<path d="M41.8444 105.406C36.2467 105.406 31.2554 104.146 26.8705 101.627C22.4856 99.1083 19.0337 95.6563 16.5148 91.2715V104.006H0.141479V10.5946H18.8938V43.5511C21.506 39.1662 24.9113 35.7143 29.1096 33.1953C33.4012 30.6764 38.3924 29.4169 44.0834 29.4169C50.4275 29.4169 55.9786 31.1895 60.7366 34.7347C65.588 38.1866 69.3664 42.8047 72.072 48.589C74.7775 54.3733 76.1303 60.7174 76.1303 67.6212C76.1303 74.7116 74.6376 81.1023 71.6521 86.7933C68.6667 92.4843 64.5617 97.0091 59.3372 100.368C54.206 103.726 48.375 105.406 41.8444 105.406ZM36.6665 89.4522C40.6782 89.4522 44.1767 88.4726 47.1622 86.5134C50.2409 84.5542 52.6199 81.942 54.2993 78.6767C56.0719 75.318 56.9582 71.6795 56.9582 67.7611C56.9582 63.7495 56.1185 60.0643 54.4392 56.7057C52.8532 53.2538 50.6141 50.5016 47.722 48.4491C44.8298 46.3966 41.5178 45.3703 37.786 45.3703C33.681 45.3703 29.9026 46.7698 26.4507 49.5686C23.0921 52.2742 20.5731 55.6328 18.8938 59.6445V77.1373C20.1066 80.7758 22.4856 83.7612 26.0309 86.0936C29.5761 88.3327 33.1213 89.4522 36.6665 89.4522Z" fill="#02274F"/>
<path d="M74.4863 104.006C74.4863 98.5015 75.0927 93.6035 76.3056 89.312C77.6117 85.0204 79.8508 81.1486 83.0228 77.6967C86.1949 74.2448 90.673 70.8862 96.4573 67.6209C101.589 64.9153 105.88 62.6296 109.332 60.7637C112.784 58.8978 115.396 57.1252 117.169 55.4459C119.035 53.6733 119.968 51.6208 119.968 49.2884C119.968 46.4895 118.848 44.1105 116.609 42.1513C114.37 40.0988 111.198 39.0726 107.093 39.0726C102.615 39.0726 98.743 40.1455 95.4777 42.2913C92.3057 44.4371 89.5535 46.9094 87.2211 49.7082L75.326 35.9938C77.0053 34.2212 79.5243 32.3087 82.8829 30.2562C86.2415 28.2037 90.2532 26.4311 94.9179 24.9384C99.5827 23.4457 104.714 22.6993 110.312 22.6993C119.828 22.6993 127.198 24.9384 132.423 29.4165C137.74 33.8014 140.399 39.4924 140.399 46.4895C140.399 50.8744 139.373 54.6062 137.321 57.6849C135.361 60.6704 132.889 63.236 129.904 65.3818C127.011 67.4343 124.213 69.2535 121.507 70.8395C115.536 73.825 110.825 76.4372 107.373 78.6763C104.014 80.9154 101.309 83.7143 99.2562 87.0729H141.939V104.006H74.4863Z" fill="#02274F"/>
<path d="M190.534 105.405C184.936 105.405 179.945 104.146 175.56 101.627C171.175 99.108 167.723 95.6561 165.204 91.2712V104.006H148.831V10.5943H167.583V43.5508C170.195 39.166 173.601 35.714 177.799 33.1951C182.09 30.6761 187.082 29.4166 192.773 29.4166C199.117 29.4166 204.668 31.1892 209.426 34.7344C214.277 38.1864 218.056 42.8045 220.761 48.5887C223.467 54.373 224.82 60.7171 224.82 67.6209C224.82 74.7114 223.327 81.1021 220.341 86.7931C217.356 92.4841 213.251 97.0089 208.027 100.367C202.895 103.726 197.064 105.405 190.534 105.405ZM185.356 89.452C189.368 89.452 192.866 88.4724 195.852 86.5132C198.93 84.554 201.309 81.9417 202.989 78.6764C204.761 75.3178 205.647 71.6793 205.647 67.7609C205.647 63.7492 204.808 60.064 203.129 56.7054C201.543 53.2535 199.303 50.5013 196.411 48.4488C193.519 46.3963 190.207 45.3701 186.475 45.3701C182.37 45.3701 178.592 46.7695 175.14 49.5683C171.781 52.2739 169.262 55.6325 167.583 59.6442V77.137C168.796 80.7755 171.175 83.761 174.72 86.0933C178.265 88.3324 181.811 89.452 185.356 89.452Z" fill="#02274F"/>
<path d="M231.921 104.006V30.676H250.673V104.006H231.921Z" fill="#FDCF00"/>
<path d="M309.746 100.228C307.227 101.347 304.102 102.467 300.37 103.586C296.731 104.706 292.953 105.265 289.034 105.265C285.583 105.265 282.411 104.659 279.518 103.446C276.626 102.233 274.294 100.321 272.521 97.7085C270.842 95.003 270.002 91.5044 270.002 87.2129V45.0901H258.16V30.6761H270.002V10.5943H288.755V30.6761H304.148V45.0901H288.755V80.9154C288.755 83.4344 289.408 85.2537 290.714 86.3732C292.113 87.4928 293.793 88.0525 295.752 88.0525C297.711 88.0525 299.623 87.726 301.489 87.0729C303.355 86.4199 304.848 85.8601 305.968 85.3936L309.746 100.228Z" fill="#FDCF00"/>
</svg>
